<mxfile host="app.diagrams.net" modified="2023-11-01T10:52:45.106Z" agent="Mozilla/5.0 (Windows NT 10.0; Win64; x64) AppleWebKit/537.36 (KHTML, like Gecko) Chrome/118.0.0.0 Safari/537.36" version="22.0.8" etag="B0ZSz1k1VvDlcFEoL67o" type="github">
  <diagram name="第 1 页" id="zy4uSG_6BHbdnK1v5zC0">
    <mxGraphModel>
      <root>
        <mxCell id="0" />
        <mxCell id="1" parent="0" />
      </root>
    </mxGraphModel>
  </diagram>
</mxfile>
